<svg width="486" height="499" viewBox="0 0 486 499" fill="none" xmlns="http://www.w3.org/2000/svg">
<circle cx="266.417" cy="279.4" r="219.583" fill="#FFF0E7"/>
<g clip-path="url(#clip0_17_879)">
<path d="M241.737 54.1419C256.721 43.1077 277.816 38.8776 294.323 47.4859C275.74 55.5289 260.611 69.8649 251.611 87.9576C248.166 94.9477 245.063 103.08 237.954 106.311C233.531 108.321 228.31 107.933 223.73 106.31C219.15 104.686 215.075 101.929 211.057 99.2003L209.852 99.0557C217.003 81.9075 226.753 65.1761 241.737 54.1419Z" fill="#F0F0F0"/>
<path d="M294.19 47.8523C278.778 48.3337 263.91 53.6437 251.698 63.0282C249.033 65.0019 246.697 67.3821 244.775 70.081C242.989 72.7704 241.957 75.8877 241.788 79.109C241.57 82.1093 241.695 85.2035 240.749 88.0986C240.242 89.5734 239.429 90.9249 238.362 92.0643C237.295 93.2038 235.998 94.1054 234.557 94.7103C231.005 96.3105 227.089 96.5431 223.251 96.6379C218.989 96.7431 214.561 96.7852 210.686 98.7854C210.216 99.0278 209.867 98.2873 210.335 98.0453C217.078 94.5652 224.957 96.8357 232.044 94.7645C235.351 93.798 238.386 91.8323 239.714 88.5433C240.875 85.6672 240.748 82.4763 240.943 79.4365C241.062 76.2917 241.952 73.2237 243.534 70.5007C245.311 67.7129 247.552 65.247 250.159 63.2085C255.956 58.5259 262.455 54.781 269.418 52.1109C277.348 49.0197 285.751 47.3036 294.262 47.0369C294.789 47.0206 294.713 47.8361 294.19 47.8523V47.8523Z" fill="white"/>
<path d="M255.452 59.7756C254.151 57.5193 253.696 54.8754 254.17 52.316C254.644 49.7566 256.015 47.4484 258.038 45.8035C258.448 45.4721 258.984 46.0925 258.573 46.4244C256.686 47.9526 255.41 50.1028 254.973 52.487C254.537 54.8712 254.97 57.3324 256.194 59.4262C256.46 59.8815 255.716 60.2283 255.452 59.7756V59.7756Z" fill="white"/>
<path d="M241.698 77.573C246.838 79.0052 252.33 78.4535 257.08 76.028C257.551 75.7873 257.901 76.5277 257.431 76.7681C252.483 79.283 246.766 79.8455 241.421 78.3435C240.911 78.2 241.191 77.4303 241.698 77.573Z" fill="white"/>
<path d="M277.309 50.104C277.631 51.0816 278.19 51.9644 278.938 52.6731C279.686 53.3818 280.598 53.8943 281.594 54.1645C282.105 54.3015 281.825 55.071 281.317 54.9349C280.218 54.6313 279.211 54.0641 278.383 53.2829C277.555 52.5017 276.932 51.5302 276.567 50.4534C276.524 50.3547 276.521 50.2435 276.557 50.1423C276.593 50.0412 276.667 49.9576 276.763 49.9086C276.862 49.8628 276.974 49.8577 277.077 49.8943C277.179 49.9308 277.263 50.0062 277.309 50.104H277.309Z" fill="white"/>
<path d="M307.41 108.994C307.088 108.917 306.767 108.841 306.44 108.769C302.112 107.762 297.71 107.108 293.276 106.813C292.933 106.784 292.586 106.761 292.243 106.742C281.553 106.144 270.845 107.529 260.662 110.828C256.612 112.144 252.667 113.766 248.863 115.679C243.61 118.321 238.125 121.602 232.47 122.338C231.881 122.421 231.287 122.468 230.692 122.478L209.769 100.532C209.747 100.458 209.719 100.389 209.696 100.315L208.821 99.477C209.01 99.3647 209.209 99.2522 209.398 99.1399C209.507 99.0743 209.622 99.0136 209.731 98.948C209.806 98.9058 209.88 98.8638 209.945 98.8215C209.97 98.8074 209.995 98.7935 210.015 98.7841C210.079 98.7418 210.144 98.7093 210.204 98.6718C211.313 98.0402 212.428 97.4154 213.55 96.7972C213.555 96.7925 213.555 96.7925 213.565 96.7926C222.125 92.1042 231.153 88.0869 240.505 85.5634C240.787 85.4876 241.073 85.4067 241.364 85.3409C245.586 84.2268 249.892 83.4584 254.24 83.0437C256.621 82.8242 259.012 82.725 261.403 82.7465C267.582 82.814 273.712 83.8499 279.568 85.8162C291.241 89.7379 301.526 97.3375 307 108.162C307.139 108.439 307.275 108.712 307.41 108.994Z" fill="#F0F0F0"/>
<path d="M307.083 109.209C294.487 100.343 279.409 95.6595 263.991 95.823C260.671 95.7994 257.368 96.2977 254.204 97.2994C251.153 98.3745 248.447 100.244 246.366 102.715C244.38 104.979 242.611 107.525 240.107 109.269C238.812 110.142 237.346 110.733 235.806 111.002C234.266 111.272 232.686 111.214 231.17 110.831C227.368 109.977 224.1 107.812 220.978 105.585C217.512 103.111 213.951 100.487 209.649 99.758C209.128 99.6697 209.296 98.8685 209.816 98.9567C217.302 100.225 222.222 106.767 229.131 109.367C232.355 110.58 235.965 110.832 239.012 109.002C241.676 107.403 243.502 104.779 245.493 102.469C247.488 100.029 250.051 98.1138 252.959 96.8894C256.062 95.7303 259.34 95.106 262.653 95.0433C270.109 94.7835 277.56 95.6941 284.733 97.7416C292.932 100.033 300.677 103.706 307.633 108.601C308.064 108.904 307.511 109.51 307.083 109.209L307.083 109.209Z" fill="white"/>
<path d="M268.952 95.4792C269.276 92.8967 270.51 90.513 272.434 88.7537C274.358 86.9945 276.846 85.9743 279.455 85.8753C279.983 85.8571 280.036 86.674 279.508 86.6923C277.078 86.78 274.76 87.7305 272.972 89.3724C271.184 91.0143 270.043 93.2393 269.756 95.6459C269.693 96.1688 268.89 95.9992 268.952 95.4792H268.952Z" fill="white"/>
<path d="M247.222 101.434C250.461 105.663 255.179 108.519 260.437 109.433C260.958 109.523 260.79 110.325 260.27 110.235C254.8 109.273 249.896 106.291 246.535 101.883C246.215 101.463 246.903 101.016 247.222 101.434V101.434Z" fill="white"/>
<path d="M292.245 100.876C291.911 101.849 291.825 102.889 291.994 103.904C292.163 104.919 292.582 105.876 293.214 106.689C293.539 107.105 292.85 107.551 292.527 107.138C291.834 106.236 291.372 105.179 291.183 104.058C290.993 102.937 291.082 101.787 291.441 100.709C291.467 100.604 291.531 100.513 291.621 100.455C291.711 100.396 291.821 100.373 291.927 100.392C292.033 100.414 292.126 100.478 292.186 100.568C292.246 100.659 292.267 100.769 292.245 100.876V100.876Z" fill="white"/>
<path d="M237.784 70.5573H236.162V26.2779C236.162 22.9124 235.497 19.5799 234.205 16.4706C232.913 13.3613 231.02 10.5361 228.633 8.15634C226.245 5.77659 223.411 3.88887 220.292 2.60095C217.173 1.31303 213.83 0.650148 210.454 0.650146H116.349C112.973 0.650139 109.63 1.31301 106.511 2.60092C103.392 3.88883 100.558 5.77654 98.1707 8.15629C95.7835 10.536 93.8898 13.3612 92.5979 16.4705C91.3059 19.5798 90.641 22.9123 90.641 26.2778V269.198C90.641 275.995 93.3495 282.514 98.1706 287.32C102.992 292.126 109.531 294.826 116.349 294.826H210.454C217.272 294.826 223.811 292.126 228.633 287.32C233.454 282.514 236.162 275.995 236.162 269.198V102.076H237.784V70.5573Z" fill="#3F3D56"/>
<path d="M211.492 7.31765H199.208C199.773 8.69829 199.988 10.1962 199.836 11.6795C199.683 13.1628 199.167 14.5859 198.333 15.8235C197.498 17.061 196.371 18.0751 195.051 18.7763C193.731 19.4774 192.259 19.8442 190.763 19.8444H136.851C135.355 19.8442 133.883 19.4774 132.562 18.7763C131.242 18.0751 130.116 17.0611 129.281 15.8235C128.447 14.5859 127.931 13.1628 127.778 11.6795C127.626 10.1962 127.841 8.69827 128.406 7.31763H116.933C111.841 7.31763 106.958 9.334 103.358 12.9232C99.7573 16.5123 97.7346 21.3803 97.7346 26.4561V269.02C97.7346 271.533 98.2311 274.022 99.196 276.344C100.161 278.666 101.575 280.776 103.358 282.553C105.14 284.33 107.257 285.74 109.586 286.702C111.915 287.664 114.412 288.159 116.933 288.159H211.492C214.013 288.159 216.509 287.664 218.839 286.702C221.168 285.74 223.284 284.33 225.067 282.553C226.85 280.776 228.264 278.666 229.229 276.344C230.193 274.022 230.69 271.533 230.69 269.02V26.4561C230.69 21.3803 228.667 16.5123 225.067 12.9232C221.466 9.33401 216.583 7.31764 211.492 7.31765Z" fill="white"/>
<path d="M166.029 210.238C159.066 210.244 152.17 208.882 145.736 206.229C139.301 203.575 133.455 199.683 128.531 194.775C123.607 189.866 119.703 184.038 117.041 177.624C114.38 171.209 113.013 164.335 113.019 157.393C113.009 147.646 115.708 138.087 120.816 129.775C125.923 121.464 133.24 114.725 141.955 110.306C148.273 107.102 155.169 105.191 162.239 104.685C169.309 104.179 176.409 105.089 183.121 107.361C195.007 111.398 205.069 119.511 211.516 130.254C217.963 140.997 220.375 153.672 218.324 166.022C216.272 178.372 209.889 189.595 200.312 197.693C190.736 205.79 178.587 210.236 166.029 210.238L166.029 210.238ZM166.029 106.621C157.987 106.598 150.057 108.494 142.901 112.151C136.645 115.328 131.116 119.76 126.661 125.168C122.206 130.577 118.92 136.845 117.01 143.579C115.1 150.314 114.608 157.369 115.563 164.302C116.519 171.235 118.901 177.897 122.562 183.868C126.223 189.84 131.083 194.993 136.836 199.003C142.589 203.013 149.112 205.794 155.995 207.172C162.878 208.55 169.972 208.494 176.833 207.009C183.693 205.523 190.171 202.64 195.86 198.54C198.611 196.561 201.155 194.311 203.453 191.824C210.173 184.575 214.628 175.53 216.271 165.795C217.913 156.061 216.673 146.061 212.701 137.018C208.73 127.976 202.199 120.285 193.91 114.886C185.62 109.487 175.931 106.615 166.029 106.621Z" fill="#F0F0F0"/>
<path d="M51.1646 110.495C52.6197 110.677 54.0171 111.175 55.2583 111.953C56.4995 112.732 57.5544 113.772 58.3487 115.001C59.143 116.23 59.6574 117.617 59.8556 119.066C60.0537 120.514 59.9309 121.988 59.4958 123.384L77.1083 138.009L70.8035 150.847L46.2221 129.845C43.918 128.961 42.0193 127.265 40.8857 125.078C39.7522 122.892 39.4626 120.367 40.0718 117.982C40.6811 115.597 42.1468 113.517 44.1913 112.137C46.2358 110.757 48.7169 110.173 51.1647 110.495L51.1646 110.495Z" fill="#FFB6B6"/>
<path d="M215.658 171.485C215.304 167.7 213.844 160.895 212.605 158.379C208.796 148.44 184.184 140.272 180.879 139.219L180.041 129.928L145.844 126.26L141.506 138.141L129.241 142.728C128.408 143.038 127.655 143.527 127.034 144.161C126.414 144.795 125.941 145.559 125.652 146.396L114.648 149.567L103.79 152.696L66.0659 126.198L64.2849 127.358L52.3804 135.102L50.5438 136.297L99.3615 180.203L117.496 175.961L131.133 172.763L132.297 177.474L129.283 194.025C138.015 202.734 149.575 208.056 161.887 209.037C174.2 210.018 186.461 206.594 196.47 199.379L204.217 192.526C209.616 186.706 213.602 179.727 215.865 172.128L215.658 171.485Z" fill="#FF6916"/>
<path d="M173.687 118.661C186.596 114.401 193.596 100.514 189.322 87.6455C185.048 74.7767 171.118 67.7984 158.209 72.0592C145.3 76.3199 138.3 90.2062 142.574 103.075C146.848 115.944 160.778 122.922 173.687 118.661Z" fill="#FFB6B6"/>
<path d="M146.499 67.3787C148.893 63.971 152.485 61.5857 156.562 60.6969C160.593 59.8704 164.788 60.6375 168.262 62.8363C172.04 61.3192 176.114 60.3127 180.116 60.8244C184.118 61.3361 188.04 63.5645 189.892 67.2357C190.281 68.1867 190.754 69.1018 191.304 69.9703C192.936 72.1401 195.967 72.4216 198.645 72.5258C197.291 73.3129 195.937 74.0999 194.583 74.8869C195.932 75.5137 197.282 76.1405 198.631 76.7674C196.795 77.4663 194.958 78.1652 193.122 78.8641C197.396 82.6098 198.43 89.2757 196.812 94.8645C195.279 100.156 191.766 104.61 187.843 108.423C187.078 105.578 187.92 102.493 188.48 99.5471C189.073 96.4344 189.167 92.7948 186.981 90.5972C185.506 89.1148 183.343 88.6669 181.303 88.3072C171.014 86.4932 160.629 85.264 150.2 84.6256C148.804 84.4333 147.382 84.578 146.054 85.0476C143.516 86.1719 142.496 89.2596 141.76 91.9975C141.408 87.1918 141.69 82.3608 142.598 77.6282C143.293 74.006 144.389 70.3805 146.499 67.3787Z" fill="#2F2E41"/>
<path d="M178.502 235.135H149.399C148.388 235.135 147.419 234.735 146.704 234.022C145.989 233.31 145.588 232.344 145.588 231.336C145.588 230.328 145.989 229.362 146.704 228.649C147.419 227.937 148.388 227.537 149.399 227.537H178.502C179.513 227.537 180.482 227.937 181.197 228.649C181.912 229.362 182.313 230.328 182.313 231.336C182.313 232.344 181.912 233.31 181.197 234.022C180.482 234.735 179.513 235.135 178.502 235.135Z" fill="#46B20F"/>
<path d="M83.0024 31.8217H2.95078C2.21311 31.8205 1.50603 31.5276 0.984825 31.0072C0.463621 30.4868 0.170883 29.7815 0.170883 29.0461C0.170883 28.3107 0.463621 27.6054 0.984825 27.085C1.50603 26.5646 2.21311 26.2717 2.95078 26.2705H83.0024C83.7408 26.2705 84.449 26.5629 84.9711 27.0835C85.4933 27.604 85.7866 28.31 85.7866 29.0461C85.7866 29.7822 85.4933 30.4882 84.9711 31.0087C84.449 31.5293 83.7408 31.8217 83.0024 31.8217Z" fill="#46B20F"/>
<path d="M129.222 49.5494H2.95078C2.21239 49.5494 1.50424 49.257 0.982115 48.7365C0.459993 48.216 0.166672 47.5101 0.166672 46.774C0.166672 46.0379 0.459993 45.3319 0.982115 44.8114C1.50424 44.2909 2.21239 43.9985 2.95078 43.9985H129.222C129.96 43.9985 130.668 44.2909 131.19 44.8114C131.712 45.3319 132.006 46.0379 132.006 46.774C132.006 47.5101 131.712 48.216 131.19 48.7365C130.668 49.257 129.96 49.5494 129.222 49.5494Z" fill="#46B20F"/>
<path d="M104.956 66.2501H2.95083C2.21243 66.2501 1.50428 65.9577 0.982161 65.4372C0.460039 64.9167 0.166718 64.2107 0.166718 63.4746C0.166718 62.7386 0.460039 62.0326 0.982161 61.5121C1.50428 60.9916 2.21243 60.6992 2.95083 60.6992H104.956C105.695 60.6992 106.403 60.9916 106.925 61.5121C107.447 62.0326 107.74 62.7386 107.74 63.4746C107.74 64.2107 107.447 64.9167 106.925 65.4372C106.403 65.9577 105.695 66.2501 104.956 66.2501Z" fill="#CACACA"/>
<path d="M60.471 82.8902H2.95083C2.21243 82.8902 1.50428 82.5978 0.982161 82.0773C0.460039 81.5568 0.166718 80.8509 0.166718 80.1148C0.166718 79.3787 0.460039 78.6727 0.982161 78.1523C1.50428 77.6318 2.21243 77.3394 2.95083 77.3394H60.471C61.2094 77.3394 61.9176 77.6318 62.4397 78.1523C62.9618 78.6727 63.2551 79.3787 63.2551 80.1148C63.2551 80.8509 62.9618 81.5568 62.4397 82.0773C61.9176 82.5978 61.2094 82.8902 60.471 82.8902Z" fill="#CACACA"/>
<path d="M92.2464 99.5284H2.95074C2.21311 99.5272 1.50611 99.2343 0.984935 98.7139C0.463762 98.1936 0.171036 97.4883 0.171036 96.753C0.171036 96.0176 0.463762 95.3123 0.984935 94.792C1.50611 94.2716 2.21311 93.9787 2.95074 93.9775H92.2464C92.984 93.9787 93.691 94.2716 94.2122 94.792C94.7334 95.3123 95.0261 96.0176 95.0261 96.753C95.0261 97.4883 94.7334 98.1936 94.2122 98.7139C93.691 99.2343 92.984 99.5272 92.2464 99.5284Z" fill="#CACACA"/>
<path d="M343.906 371.064L336.731 371.063L333.318 343.475L343.908 343.476L343.906 371.064Z" fill="#9F616A"/>
<path d="M346.729 380.963L319.337 380.962V380.616C319.337 377.797 320.46 375.094 322.46 373.101C324.459 371.108 327.171 369.988 329.998 369.988H329.999L335.003 366.204L344.338 369.988L346.73 369.988L346.729 380.963Z" fill="#2F2E41"/>
<path d="M339.726 241.405L336.561 202.943L334.075 188.507L347.994 185.442L352.612 205.207L348.588 242.472C349.4 243.464 349.896 244.675 350.012 245.949C350.128 247.224 349.859 248.504 349.24 249.625C348.621 250.746 347.679 251.657 346.537 252.24C345.394 252.824 344.103 253.054 342.829 252.901C341.554 252.747 340.355 252.217 339.384 251.379C338.414 250.541 337.718 249.433 337.384 248.197C337.051 246.961 337.095 245.654 337.513 244.444C337.93 243.234 338.701 242.175 339.726 241.405H339.726Z" fill="#9F616A"/>
<path d="M305.795 371.064L298.62 371.063L295.206 343.475L305.796 343.476L305.795 371.064Z" fill="#9F616A"/>
<path d="M294.312 250.124L291.131 255.609C291.131 255.609 287.637 256.56 288.779 267.917C289.921 279.275 289.97 346.562 295.499 354.842L296.499 361.952L306.94 362.947L307.203 356.638L319.652 268.989C319.652 268.989 326.984 355.033 333.049 357.138L335.24 364.307L344.808 364.311L344.243 355.863L344.86 249.235L294.312 250.124Z" fill="#2F2E41"/>
<path d="M290.815 255.191L290.595 255.134C297.16 230.656 295.266 198.958 290.631 164.921L290.631 164.78L307.389 149.479H321.941L336.366 158.759C345.692 163.407 347.812 173.251 347.832 173.35L347.846 173.42L342.132 193.304L346.437 250.806L346.442 250.873L346.417 250.935C345.024 254.456 341.291 253.955 336.968 253.374C332.653 252.794 316.751 258.098 311.875 258.098C302.346 258.098 291.496 255.365 290.815 255.191Z" fill="#46B20F"/>
<path d="M333.345 166.509L339.597 163.798L347.833 173.865L354.509 206.123L331.642 202.669L333.345 166.509Z" fill="#46B20F"/>
<path d="M237.193 225.993L265.771 199.96L275.703 189.166L286.651 198.264L273.798 214.001L241.77 233.633C241.48 234.88 240.823 236.012 239.883 236.883C238.943 237.755 237.763 238.326 236.494 238.524C235.226 238.722 233.927 238.537 232.765 237.994C231.603 237.451 230.63 236.573 229.972 235.474C229.314 234.375 229 233.106 229.071 231.828C229.143 230.55 229.596 229.323 230.372 228.303C231.148 227.284 232.213 226.519 233.428 226.108C234.644 225.696 235.955 225.656 237.193 225.993L237.193 225.993Z" fill="#9F616A"/>
<path d="M265.149 200.244L273.064 189.997C273.129 189.85 279.696 175.222 285.388 168.866C291.227 162.345 295.824 165.68 295.87 165.716L295.984 165.802L296.302 189.88L274.386 215.986L265.149 200.244Z" fill="#46B20F"/>
<path d="M326.389 135.066C327.569 127.817 322.63 120.986 315.358 119.81C308.086 118.633 301.234 123.556 300.054 130.806C298.874 138.055 303.813 144.886 311.085 146.062C318.357 147.239 325.209 142.315 326.389 135.066Z" fill="#9F616A"/>
<path d="M301.026 130.962C301.026 130.962 300.919 126.287 300.326 124.218C299.733 122.15 298.548 120.377 299.141 120.377C299.733 120.377 300.03 118.899 300.03 118.899C300.03 118.899 300.623 118.604 300.919 118.899C301.216 119.195 301.512 116.831 301.512 116.831C301.512 116.831 301.809 115.944 302.105 116.535C302.401 117.126 302.401 116.831 302.698 115.944C302.994 115.058 304.477 114.467 304.477 114.467C304.477 114.467 310.109 114.762 310.998 113.58C311.887 112.398 321.966 113.284 324.041 114.762C326.116 116.24 335.306 121.559 333.824 125.991C332.341 130.424 328.075 140.63 327.006 141.654C325.315 143.272 324.144 143.855 316.144 145.442C314.579 145.752 306.587 140.658 306.587 139.771C306.587 138.885 307.551 136.073 306.002 135.687C303.661 135.104 303.398 138.054 302.805 137.168C302.212 136.281 301.026 130.962 301.026 130.962Z" fill="#2F2E41"/>
<path d="M308.617 380.963L281.225 380.962V380.616C281.225 377.797 282.348 375.094 284.348 373.101C286.347 371.108 289.059 369.988 291.887 369.988H291.888L296.891 366.204L306.227 369.988L308.618 369.988L308.617 380.963Z" fill="#2F2E41"/>
<path d="M451.008 381.483H2.4728C2.25398 381.483 2.04413 381.397 1.8894 381.242C1.73467 381.088 1.64774 380.879 1.64774 380.661C1.64774 380.443 1.73467 380.233 1.8894 380.079C2.04413 379.925 2.25398 379.838 2.4728 379.838H451.008C451.227 379.838 451.437 379.925 451.592 380.079C451.746 380.233 451.833 380.443 451.833 380.661C451.833 380.879 451.746 381.088 451.592 381.242C451.437 381.397 451.227 381.483 451.008 381.483Z" fill="#CACACA"/>
</g>
<defs>
<clipPath id="clip0_17_879">
<rect width="451.667" height="380.833" fill="white" transform="translate(0.166687 0.650146)"/>
</clipPath>
</defs>
</svg>
