<svg class="svg-icon" style="width: 1em; height: 1em;vertical-align: middle;fill: currentColor;overflow: hidden;" viewBox="0 0 1024 1024" version="1.1" xmlns="http://www.w3.org/2000/svg"><path d="M391.428571 276q9.142857 0 15.714286-6.571429t6.571429-15.714286-6.571429-15.714286-15.714286-6.571429-15.428571 6.571429-6.285714 15.714286 6.285714 15.714286 15.428571 6.571429zm241.142857 0q9.142857 0 15.428571-6.571429t6.285714-15.714286-6.285714-15.714286-15.428571-6.571429-15.714286 6.571429-6.571429 15.714286 6.571429 15.714286 15.714286 6.571429zm-464 105.142857q24 0 41.142857 17.142857t17.142857 41.142857l0 245.714286q0 24.571429-16.857143 41.714286t-41.428571 17.142857-41.714286-17.142857-17.142857-41.714286l0-245.714286q0-24 17.142857-41.142857t41.714286-17.142857zm605.714286 10.857143l0 380.571429q0 26.285714-18.285714 44.571429t-44 18.285714l-42.857143 0 0 129.714286q0 24.571429-17.142857 41.714286t-41.714286 17.142857-41.714286-17.142857-17.142857-41.714286l0-129.714286-78.857143 0 0 129.714286q0 24.571429-17.142857 41.714286t-41.714286 17.142857q-24 0-41.142857-17.142857t-17.142857-41.714286l-0.571429-129.714286-42.285714 0q-26.285714 0-44.571429-18.285714t-18.285714-44.571429l0-380.571429 524.571429 0zm-132.571429-231.428571q61.142857 31.428571 97.714286 87.714286t36.571429 123.142857l-528.571429 0q0-66.857143 36.571429-123.142857t98.285714-87.714286l-40.571429-74.857143q-4-7.428571 2.857143-11.428571 7.428571-3.428571 11.428571 3.428571l41.142857 75.428571q54.285714-24 114.857143-24t114.857143 24l41.142857-75.428571q4-6.857143 11.428571-3.428571 6.857143 4 2.857143 11.428571zm272.571429 278.857143l0 245.714286q0 24.571429-17.142857 41.714286t-41.714286 17.142857q-24 0-41.142857-17.142857t-17.142857-41.714286l0-245.714286q0-24.571429 17.142857-41.428571t41.142857-16.857143q24.571429 0 41.714286 16.857143t17.142857 41.428571z"  /></svg>