<svg class="svg-icon" style="width: 1em; height: 1em;vertical-align: middle;fill: currentColor;overflow: hidden;" viewBox="0 0 1024 1024" version="1.1" xmlns="http://www.w3.org/2000/svg"><path d="M640 576h384v288c0 53.02-42.98 96-96 96H96c-53.02 0-96-42.98-96-96V576h384v40c0 13.254 10.746 24 24 24h208c13.254 0 24-10.746 24-24v-40z m384-224v160H0v-160c0-53.02 42.98-96 96-96h160V160c0-53.02 42.98-96 96-96h320c53.02 0 96 42.98 96 96v96h160c53.02 0 96 42.98 96 96zM640 192H384v64h256V192z" fill="" /></svg>