<svg class="svg-icon" style="width: 1em; height: 1em;vertical-align: middle;fill: currentColor;overflow: hidden;" viewBox="0 0 1024 1024" version="1.1" xmlns="http://www.w3.org/2000/svg"><path d="M170.666667 170.666667h128l85.333333-85.333334h256l85.333333 85.333334h128a85.333333 85.333333 0 0 1 85.333334 85.333333v512a85.333333 85.333333 0 0 1-85.333334 85.333333H170.666667a85.333333 85.333333 0 0 1-85.333334-85.333333V256a85.333333 85.333333 0 0 1 85.333334-85.333333m341.333333 128a213.333333 213.333333 0 0 0-213.333333 213.333333 213.333333 213.333333 0 0 0 213.333333 213.333333 213.333333 213.333333 0 0 0 213.333333-213.333333 213.333333 213.333333 0 0 0-213.333333-213.333333m0 85.333333a128 128 0 0 1 128 128 128 128 0 0 1-128 128 128 128 0 0 1-128-128 128 128 0 0 1 128-128z" fill="" /></svg>