<svg class="svg-icon" style="width: 1em; height: 1em;vertical-align: middle;fill: currentColor;overflow: hidden;" viewBox="0 0 1024 1024" version="1.1" xmlns="http://www.w3.org/2000/svg"><path d="M992 768H128V160c0-17.68-14.32-32-32-32H32C14.32 128 0 142.32 0 160v672c0 35.34 28.66 64 64 64h928c17.68 0 32-14.32 32-32v-64c0-17.68-14.32-32-32-32zM928 192H691.88c-42.76 0-64.18 51.7-33.94 81.94l64.8 64.8L576 485.5l-146.74-146.74c-25-25-65.52-25-90.5 0l-137.38 137.38c-12.5 12.5-12.5 32.76 0 45.26l45.24 45.24c12.5 12.5 32.76 12.5 45.26 0L384 474.5l146.74 146.74c25 25 65.52 25 90.5 0l192-192 64.8 64.8c30.24 30.24 81.94 8.82 81.94-33.94V224c0.02-17.68-14.3-32-31.98-32z"  /></svg>