<svg xmlns:xlink="http://www.w3.org/1999/xlink" xmlns="http://www.w3.org/2000/svg" class="icon-facebook" width="18"  height="18" ><defs><symbol id="svg-facebook" viewBox="0 0 18 18" preserveAspectRatio="xMinYMin meet">
      <path d="M16.313,18h-4.504v-6.192h3.087V8.671h-3.087V7.135V6.831V6.814l0,0c0.01-0.328,0.277-0.591,0.607-0.591h0.067h1.113h1.62V3.086h-2.733l0,0l-0.009,0.018h-0.092c-2.051,0-3.712,1.661-3.712,3.711v0.911v0.945H6.191v3.137h2.479V18H1.687C0.755,18,0,17.242,0,16.313V1.686C0,0.754,0.755,0,1.687,0h14.626C17.244,0,18,0.754,18,1.686v14.627C18,17.242,17.244,18,16.313,18z"></path>
    </symbol></defs>
              <use xlink:href="#svg-facebook" fill="#FFFFFF"></use>
            </svg>