<svg width="17" height="17" viewBox="0 0 17 17" fill="none" xmlns="http://www.w3.org/2000/svg">
<g id="calendar / calendar">
<path id="coolicon" d="M13.5277 15.5947H3.80551C3.03845 15.5947 2.41663 14.9729 2.41663 14.2058V4.48359C2.41663 3.71653 3.03845 3.0947 3.80551 3.0947H5.1944V1.70581H6.58329V3.0947H10.75V1.70581H12.1388V3.0947H13.5277C14.2948 3.0947 14.9166 3.71653 14.9166 4.48359V14.2058C14.9166 14.9729 14.2948 15.5947 13.5277 15.5947ZM3.80551 7.26137V14.2058H13.5277V7.26137H3.80551ZM3.80551 4.48359V5.87248H13.5277V4.48359H3.80551ZM12.1388 12.8169H10.75V11.428H12.1388V12.8169ZM9.36107 12.8169H7.97218V11.428H9.36107V12.8169ZM6.58329 12.8169H5.1944V11.428H6.58329V12.8169ZM12.1388 10.0391H10.75V8.65025H12.1388V10.0391ZM9.36107 10.0391H7.97218V8.65025H9.36107V10.0391ZM6.58329 10.0391H5.1944V8.65025H6.58329V10.0391Z" fill="#B7B7B7"/>
</g>
</svg>
