<svg width="26" height="23" viewBox="0 0 26 23" fill="none" xmlns="http://www.w3.org/2000/svg">
<g id="Frame" clip-path="url(#clip0_2420_60)">
<g id="Group">
<path id="Vector" d="M0.5 0.633657C0.682081 0.224929 0.990445 0.0766166 1.43341 0.082569C2.78434 0.101914 4.13576 0.0890173 5.48717 0.0900094C6.01873 0.0900094 6.25417 0.275028 6.37653 0.808259C6.54491 1.54536 6.70399 2.28494 6.87481 3.06023C6.97172 3.06023 7.07402 3.06023 7.17681 3.06023C12.9892 3.06023 18.8016 3.06717 24.6136 3.04932C25.2087 3.04733 25.6512 3.46846 25.4515 4.16588C24.4946 7.50663 23.5597 10.8543 22.6165 14.1991C22.4516 14.7844 22.245 14.9396 21.6361 14.9396C17.3298 14.9396 13.0235 14.9396 8.71716 14.9396C8.27273 14.9396 7.9903 15.1078 7.87675 15.4361C7.71767 15.897 8.01624 16.3617 8.51256 16.4198C8.60899 16.4312 8.70786 16.4262 8.80526 16.4262C13.1277 16.4267 17.4507 16.4262 21.7732 16.4267C22.2441 16.4267 22.5647 16.7114 22.5788 17.1355C22.593 17.5611 22.2842 17.8989 21.8618 17.9079C21.504 17.9153 21.1462 17.9093 20.781 17.9262C21.3757 18.073 21.8632 18.3821 22.2029 18.895C22.5495 19.4183 22.6586 20.0001 22.5275 20.6192C22.3038 21.6752 21.3263 22.4222 20.2573 22.3612C19.1957 22.3007 18.3342 21.4808 18.2006 20.3949C18.0904 19.5016 18.5408 18.3032 20.0292 17.9213C16.7987 17.9213 13.6123 17.9213 10.4254 17.9213C11.0088 18.0711 11.4959 18.3731 11.836 18.8811C12.1801 19.3945 12.2937 19.9634 12.1792 20.578C11.9868 21.6092 11.0441 22.3815 9.99222 22.3652C8.91784 22.3488 8.02016 21.5497 7.85423 20.4619C7.67753 19.3032 8.33342 18.3682 9.67945 17.9103C9.31529 17.9103 8.9986 17.9108 8.68143 17.9103C7.55027 17.9089 6.69566 17.2655 6.42254 16.21C6.16753 15.2248 6.6291 14.2298 7.59286 13.6842C7.62027 13.6688 7.64523 13.649 7.67851 13.6261C6.79747 9.6093 5.9179 5.59692 5.0354 1.57314C4.26302 1.57314 3.50679 1.57314 2.75057 1.57314C2.31935 1.57314 1.88666 1.5523 1.45642 1.57909C1.00758 1.60637 0.685508 1.4531 0.5 1.02949C0.5 0.897544 0.5 0.765601 0.5 0.633657ZM23.801 4.55228C18.2573 4.55228 12.7401 4.55228 7.2003 4.55228C7.85227 7.52499 8.50082 10.4843 9.14936 13.4411C13.2095 13.4411 17.2515 13.4411 21.2945 13.4411C22.13 10.4788 22.9616 7.53044 23.801 4.55228ZM10.7568 20.1588C10.771 19.7695 10.4376 19.4128 10.0461 19.3984C9.66183 19.384 9.3099 19.7218 9.29571 20.1187C9.28152 20.508 9.61484 20.8647 10.0064 20.8791C10.3906 20.8935 10.7421 20.5562 10.7568 20.1588ZM20.4188 19.3999C20.0371 19.3741 19.6797 19.702 19.6533 20.1023C19.6279 20.4892 19.9514 20.8513 20.3464 20.8781C20.7282 20.9039 21.0855 20.576 21.1119 20.1757C21.1374 19.7883 20.8138 19.4267 20.4188 19.3999Z" fill="#2C2C2C"/>
</g>
</g>
<defs>
<clipPath id="clip0_2420_60">
<rect width="25" height="22.2826" fill="white" transform="translate(0.5 0.083374)"/>
</clipPath>
</defs>
</svg>
